<svg width="25" height="25" viewBox="0 0 25 25" fill="none" xmlns="http://www.w3.org/2000/svg">
<path d="M15.9573 6.98578C15.8904 6.98578 15.8387 6.98578 15.7863 6.98578C15.0453 6.98578 14.3044 6.9835 13.5642 6.98578C13.1758 6.9873 12.8939 6.81783 12.7328 6.46749C12.58 6.13614 12.6568 5.78124 12.9357 5.49853C13.384 5.04483 13.8377 4.59569 14.2892 4.14427C15.5104 2.923 16.7325 1.7025 17.9514 0.478954C18.1331 0.297323 18.3261 0.147609 18.5929 0.13013C18.874 0.111131 19.1066 0.216006 19.3027 0.412077C19.8042 0.913655 20.3058 1.41599 20.8082 1.91757C21.9823 3.09172 23.1542 4.26738 24.3314 5.43773C24.6034 5.70904 24.7334 6.01227 24.6163 6.39225C24.5031 6.75931 24.1786 6.98502 23.7705 6.98578C23.025 6.98654 22.2802 6.98578 21.5347 6.98578C21.4868 6.98578 21.4397 6.98578 21.3728 6.98578C21.4108 7.24949 21.445 7.49572 21.4822 7.74119C21.6487 8.85682 21.8159 9.97245 21.9838 11.0873C22.1579 12.2425 22.3342 13.3969 22.5074 14.552C22.6807 15.7071 22.8517 16.8623 23.025 18.0182C23.1906 19.1247 23.3571 20.2312 23.5235 21.3377C23.6147 21.9419 23.7082 22.5453 23.7956 23.1495C23.8708 23.6708 23.465 24.1253 22.9262 24.1261C21.543 24.1276 20.1591 24.1261 18.776 24.1261C17.6026 24.1261 16.4285 24.1276 15.2551 24.1253C14.7717 24.1245 14.3864 23.7575 14.3781 23.2977C14.369 22.8029 14.752 22.4131 15.2536 22.4123C16.8199 22.4108 18.3861 22.4116 19.9524 22.4108C20.5634 22.4108 21.1752 22.4108 21.7862 22.4108C21.8341 22.4108 21.8827 22.4108 21.9489 22.4108C21.9025 22.0931 21.8592 21.7907 21.8143 21.4882C21.6669 20.5048 21.5187 19.5222 21.3705 18.5395C21.2391 17.6717 21.1038 16.8038 20.9738 15.9351C20.8082 14.8286 20.647 13.7214 20.4821 12.6148C20.3636 11.8214 20.2405 11.028 20.1219 10.2346C19.922 8.89862 19.7229 7.5626 19.5276 6.22582C19.4554 5.73488 19.8567 5.27738 20.3636 5.27054C20.7648 5.26522 21.1669 5.26902 21.5689 5.26902C21.6114 5.26902 21.654 5.26902 21.6973 5.26902C21.7057 5.2561 21.7133 5.24318 21.7216 5.23026C20.7056 4.22483 19.6887 3.22015 18.6764 2.21852C17.6642 3.23687 16.6534 4.25371 15.6449 5.26826C15.8957 5.26826 16.1701 5.26522 16.4437 5.26902C16.6663 5.27206 16.892 5.25914 17.1102 5.2941C17.5593 5.3663 17.8587 5.77972 17.7994 6.22734C17.725 6.79275 17.6399 7.35741 17.5593 7.92206C17.4362 8.7869 17.3138 9.6525 17.1907 10.5173C17.1086 11.0911 17.0296 11.6649 16.9422 12.2379C16.8814 12.6376 16.6124 12.9036 16.2157 12.9743C15.8669 13.0366 15.5013 12.8512 15.3189 12.5001C14.8014 11.5038 14.0863 10.6777 13.1819 10.0165C11.9302 9.10077 10.5266 8.64707 8.97396 8.70331C6.12941 8.80666 3.62761 10.6937 2.73085 13.3946C1.64789 16.6556 3.15719 20.2206 6.25101 21.7223C7.27164 22.2178 8.34851 22.442 9.4763 22.4024C10.8921 22.3523 12.1552 21.8522 13.2921 21.0231C14.1509 20.3969 14.7968 19.5845 15.2938 18.6497C15.5355 18.1953 15.9717 18.0129 16.4117 18.1862C16.8928 18.3754 17.0904 18.9454 16.8373 19.4143C15.822 21.2914 14.3439 22.6639 12.3733 23.49C11.0996 24.0235 9.76965 24.234 8.39411 24.0774C5.62935 23.7628 3.48777 22.423 1.97772 20.0929C1.19343 18.8906 0.780773 17.5546 0.686537 16.1198C0.581662 14.5178 0.892488 13.0024 1.64637 11.5874C2.82432 9.37663 4.63684 7.94334 7.04517 7.27305C8.27176 6.93182 9.51734 6.89003 10.7682 7.13702C12.6271 7.50408 14.1858 8.4092 15.48 9.78398C15.4945 9.79994 15.512 9.81285 15.5469 9.84477C15.6845 8.88646 15.819 7.94638 15.9565 6.98578H15.9573Z" fill="#005365"/>
<path d="M15.9997 15.1001C16.3167 14.6768 16.6282 14.2588 16.9413 13.8423C17.2658 13.4107 17.5904 12.9805 17.9156 12.5496C18.0881 12.3216 18.2941 12.1446 18.5973 12.1294C18.9499 12.1119 19.2273 12.2548 19.4021 12.5587C19.5761 12.8627 19.5693 13.1804 19.3626 13.4677C19.0001 13.97 18.6239 14.4632 18.2523 14.9595C17.7682 15.6054 17.2841 16.2514 16.797 16.8951C16.5408 17.234 16.1707 17.3564 15.7923 17.212C15.6676 17.1641 15.5476 17.0798 15.4518 16.9855C14.8917 16.4353 14.3347 15.8813 13.786 15.3197C13.3665 14.8903 13.4463 14.2535 13.9425 13.9578C14.2875 13.7526 14.7002 13.8157 15.0171 14.1273C15.3188 14.4245 15.6175 14.7254 15.9177 15.0248C15.942 15.0491 15.9686 15.0719 15.9997 15.1008V15.1001Z" fill="#005365"/>
<path d="M8.48232 11.8442C8.48232 11.6124 8.48004 11.3555 8.48232 11.0986C8.48764 10.6419 8.8053 10.3098 9.2324 10.3105C9.65722 10.3113 9.97413 10.6457 9.98021 11.1024C9.98325 11.3593 9.98021 11.6154 9.98021 11.8442C10.3442 11.9787 10.7007 12.0729 11.0221 12.2363C11.6871 12.5745 12.0998 13.1217 12.2176 13.8695C12.2799 14.2662 12.1081 14.5975 11.7813 14.7419C11.4705 14.8795 11.1034 14.7966 10.8998 14.5185C10.82 14.4098 10.7516 14.2692 10.7417 14.1377C10.7189 13.8254 10.5578 13.6172 10.291 13.5085C9.58959 13.222 8.87598 13.2235 8.17301 13.5077C7.93362 13.6042 7.73527 13.7844 7.74059 14.0671C7.74515 14.3475 7.94198 14.5375 8.18745 14.612C8.5036 14.7085 8.83646 14.7814 9.16629 14.7974C9.72334 14.8247 10.2736 14.8665 10.7896 15.0923C11.5191 15.4107 12.0207 15.9358 12.1894 16.7315C12.368 17.5735 11.893 18.4764 11.0335 18.902C10.7577 19.0388 10.4521 19.1224 10.1535 19.2037C10.022 19.2394 9.97261 19.2835 9.97869 19.4195C9.98857 19.63 9.98553 19.8413 9.98021 20.0518C9.96805 20.4751 9.64583 20.7988 9.23848 20.8019C8.82202 20.8057 8.4922 20.4766 8.48384 20.0412C8.47852 19.7843 8.48308 19.5274 8.48308 19.2576C8.33108 19.2234 8.18441 19.2029 8.04534 19.1581C7.10222 18.8548 6.43421 18.2864 6.25334 17.2635C6.1667 16.7741 6.43877 16.3713 6.88563 16.3112C7.32033 16.2527 7.67219 16.5552 7.73299 17.0461C7.76415 17.2954 7.9055 17.4732 8.11829 17.569C8.85318 17.8996 9.60631 17.9178 10.3344 17.5735C10.8375 17.3357 10.8397 16.8987 10.3731 16.5856C10.0494 16.3682 9.68002 16.312 9.3008 16.3097C8.7901 16.3059 8.28929 16.2527 7.80671 16.0756C7.34921 15.9077 6.96087 15.6409 6.666 15.2518C5.87412 14.2069 6.22142 12.8283 7.44116 12.2272C7.75959 12.0706 8.10993 11.9802 8.48308 11.8457L8.48232 11.8442Z" fill="#005365"/>
</svg>
